<?xml version="1.0" encoding="UTF-8" standalone="no"?>
<!DOCTYPE svg PUBLIC "-//W3C//DTD SVG 1.1//EN"
 "http://www.w3.org/Graphics/SVG/1.1/DTD/svg11.dtd">
<!-- Generated by graphviz version 12.1.1 (0)
 -->
<!-- Title: G Pages: 1 -->
<svg width="1070pt" height="260pt"
 viewBox="0.00 0.00 1069.50 260.31" xmlns="http://www.w3.org/2000/svg" xmlns:xlink="http://www.w3.org/1999/xlink">
<g id="graph0" class="graph" transform="scale(1 1) rotate(0) translate(4 256.31)">
<title>G</title>
<polygon fill="white" stroke="none" points="-4,4 -4,-256.31 1065.5,-256.31 1065.5,4 -4,4"/>
<!-- wf -->
<g id="node1" class="node">
<title>wf</title>
<ellipse fill="none" stroke="green" cx="129.58" cy="-222.26" rx="129.58" ry="30.05"/>
<text text-anchor="middle" x="129.58" y="-226.21" font-family="Times,serif" font-size="14.00">Reproducing workflows</text>
<text text-anchor="middle" x="129.58" y="-208.96" font-family="Times,serif" font-size="14.00">ACM REP &#39;23</text>
</g>
<!-- PROBE -->
<g id="node4" class="node">
<title>PROBE</title>
<ellipse fill="none" stroke="orange" cx="587.58" cy="-126.16" rx="76.01" ry="30.05"/>
<text text-anchor="middle" x="587.58" y="-130.11" font-family="Times,serif" font-size="14.00">PROBE</text>
<text text-anchor="middle" x="587.58" y="-112.86" font-family="Times,serif" font-size="14.00">(in progress)</text>
</g>
<!-- wf&#45;&gt;PROBE -->
<g id="edge1" class="edge">
<title>wf&#45;&gt;PROBE</title>
<path fill="none" stroke="black" d="M224.15,-201.43C239.01,-198.33 254.21,-195.17 268.58,-192.21 350.86,-175.22 445.14,-156.03 509.75,-142.92"/>
<polygon fill="black" stroke="black" points="510.07,-146.42 519.17,-141.01 508.67,-139.56 510.07,-146.42"/>
</g>
<!-- standards -->
<g id="node2" class="node">
<title>standards</title>
<ellipse fill="none" stroke="green" cx="437.58" cy="-222.26" rx="160.34" ry="30.05"/>
<text text-anchor="middle" x="437.58" y="-226.21" font-family="Times,serif" font-size="14.00">Sem Web standards for repro</text>
<text text-anchor="middle" x="437.58" y="-208.96" font-family="Times,serif" font-size="14.00">SE4RS &#39;23</text>
</g>
<!-- standards&#45;&gt;PROBE -->
<g id="edge2" class="edge">
<title>standards&#45;&gt;PROBE</title>
<path fill="none" stroke="black" d="M482.58,-193.03C500.06,-182.06 520.13,-169.47 538.02,-158.25"/>
<polygon fill="black" stroke="black" points="539.81,-161.26 546.42,-152.98 536.09,-155.33 539.81,-161.26"/>
</g>
<!-- bench -->
<g id="node3" class="node">
<title>bench</title>
<ellipse fill="none" stroke="green" cx="737.58" cy="-222.26" rx="121.62" ry="30.05"/>
<text text-anchor="middle" x="737.58" y="-226.21" font-family="Times,serif" font-size="14.00">Review of sys&#45;lvl prov</text>
<text text-anchor="middle" x="737.58" y="-208.96" font-family="Times,serif" font-size="14.00">ACM REP &#39;24</text>
</g>
<!-- bench&#45;&gt;PROBE -->
<g id="edge3" class="edge">
<title>bench&#45;&gt;PROBE</title>
<path fill="none" stroke="black" d="M693.79,-193.79C675.98,-182.61 655.31,-169.65 636.96,-158.14"/>
<polygon fill="black" stroke="black" points="638.94,-155.24 628.61,-152.9 635.22,-161.17 638.94,-155.24"/>
</g>
<!-- copr -->
<g id="node6" class="node">
<title>copr</title>
<ellipse fill="none" stroke="orange" cx="413.58" cy="-30.05" rx="137.53" ry="30.05"/>
<text text-anchor="middle" x="413.58" y="-34" font-family="Times,serif" font-size="14.00">Large&#45;scale reproduction</text>
<text text-anchor="middle" x="413.58" y="-16.75" font-family="Times,serif" font-size="14.00">(in progress)</text>
</g>
<!-- PROBE&#45;&gt;copr -->
<g id="edge5" class="edge">
<title>PROBE&#45;&gt;copr</title>
<path fill="none" stroke="black" d="M543.67,-101.41C522.62,-90.03 497.07,-76.21 474.21,-63.84"/>
<polygon fill="black" stroke="black" points="476.05,-60.86 465.59,-59.18 472.72,-67.02 476.05,-60.86"/>
</g>
<!-- sandia_ex -->
<g id="node7" class="node">
<title>sandia_ex</title>
<ellipse fill="none" stroke="orange" cx="761.58" cy="-30.05" rx="192.69" ry="30.05"/>
<text text-anchor="middle" x="761.58" y="-34" font-family="Times,serif" font-size="14.00">PROBE @ Sandia experience report</text>
<text text-anchor="middle" x="761.58" y="-16.75" font-family="Times,serif" font-size="14.00">(in progress)</text>
</g>
<!-- PROBE&#45;&gt;sandia_ex -->
<g id="edge6" class="edge">
<title>PROBE&#45;&gt;sandia_ex</title>
<path fill="none" stroke="black" d="M631.48,-101.41C652,-90.31 676.8,-76.9 699.21,-64.78"/>
<polygon fill="black" stroke="black" points="700.86,-67.87 707.99,-60.03 697.53,-61.71 700.86,-67.87"/>
</g>
<!-- PROBE_preview -->
<g id="node5" class="node">
<title>PROBE_preview</title>
<ellipse fill="none" stroke="green" cx="969.58" cy="-222.26" rx="91.92" ry="30.05"/>
<text text-anchor="middle" x="969.58" y="-226.21" font-family="Times,serif" font-size="14.00">PROBE preview</text>
<text text-anchor="middle" x="969.58" y="-208.96" font-family="Times,serif" font-size="14.00">US&#45;RSE &#39;24</text>
</g>
<!-- PROBE_preview&#45;&gt;PROBE -->
<g id="edge4" class="edge">
<title>PROBE_preview&#45;&gt;PROBE</title>
<path fill="none" stroke="black" d="M902.35,-201.39C891.1,-198.22 879.53,-195.05 868.58,-192.21 799.96,-174.41 721.31,-156.4 664.7,-143.86"/>
<polygon fill="black" stroke="black" points="665.67,-140.49 655.16,-141.76 664.16,-147.33 665.67,-140.49"/>
</g>
</g>
</svg>
