<?xml version="1.0" encoding="UTF-8" standalone="no"?>
<!DOCTYPE svg PUBLIC "-//W3C//DTD SVG 1.1//EN"
 "http://www.w3.org/Graphics/SVG/1.1/DTD/svg11.dtd">
<!-- Generated by graphviz version 12.1.1 (0)
 -->
<!-- Title: G Pages: 1 -->
<svg width="232pt" height="380pt"
 viewBox="0.00 0.00 231.92 380.21" xmlns="http://www.w3.org/2000/svg" xmlns:xlink="http://www.w3.org/1999/xlink">
<g id="graph0" class="graph" transform="scale(1 1) rotate(0) translate(4 376.21)">
<title>G</title>
<polygon fill="white" stroke="none" points="-4,4 -4,-376.21 227.92,-376.21 227.92,4 -4,4"/>
<!-- head -->
<g id="node1" class="node">
<title>head</title>
<polygon fill="none" stroke="black" points="176.92,-372.21 100.92,-372.21 100.92,-336.21 182.92,-336.21 182.92,-366.21 176.92,-372.21"/>
<polyline fill="none" stroke="black" points="176.92,-372.21 176.92,-366.21"/>
<polyline fill="none" stroke="black" points="182.92,-366.21 176.92,-366.21"/>
<text text-anchor="middle" x="141.92" y="-349.53" font-family="Times,serif" font-size="14.00">/bin/head</text>
</g>
<!-- head123 -->
<g id="node6" class="node">
<title>head123</title>
<ellipse fill="none" stroke="black" cx="56.92" cy="-270.16" rx="56.92" ry="30.05"/>
<text text-anchor="middle" x="56.92" y="-274.11" font-family="Times,serif" font-size="14.00">head</text>
<text text-anchor="middle" x="56.92" y="-256.86" font-family="Times,serif" font-size="14.00">(pid 123)</text>
</g>
<!-- head&#45;&gt;head123 -->
<g id="edge1" class="edge">
<title>head&#45;&gt;head123</title>
<path fill="none" stroke="black" d="M123.9,-335.81C114.58,-326.81 102.87,-315.51 91.87,-304.89"/>
<polygon fill="black" stroke="black" points="94.36,-302.43 84.73,-298 89.49,-307.46 94.36,-302.43"/>
</g>
<!-- head456 -->
<g id="node7" class="node">
<title>head456</title>
<ellipse fill="none" stroke="black" cx="141.92" cy="-102.05" rx="56.92" ry="30.05"/>
<text text-anchor="middle" x="141.92" y="-106" font-family="Times,serif" font-size="14.00">head</text>
<text text-anchor="middle" x="141.92" y="-88.75" font-family="Times,serif" font-size="14.00">(pid 123)</text>
</g>
<!-- head&#45;&gt;head456 -->
<g id="edge4" class="edge">
<title>head&#45;&gt;head456</title>
<path fill="none" stroke="black" d="M141.92,-336.01C141.92,-296.65 141.92,-199.09 141.92,-143.51"/>
<polygon fill="black" stroke="black" points="145.42,-143.84 141.92,-133.84 138.42,-143.84 145.42,-143.84"/>
</g>
<!-- A_txt -->
<g id="node2" class="node">
<title>A_txt</title>
<polygon fill="none" stroke="black" points="76.92,-372.21 28.92,-372.21 28.92,-336.21 82.92,-336.21 82.92,-366.21 76.92,-372.21"/>
<polyline fill="none" stroke="black" points="76.92,-372.21 76.92,-366.21"/>
<polyline fill="none" stroke="black" points="82.92,-366.21 76.92,-366.21"/>
<text text-anchor="middle" x="55.92" y="-349.53" font-family="Times,serif" font-size="14.00">A.txt</text>
</g>
<!-- A_txt&#45;&gt;head123 -->
<g id="edge2" class="edge">
<title>A_txt&#45;&gt;head123</title>
<path fill="none" stroke="black" d="M56.13,-335.81C56.22,-328.76 56.32,-320.29 56.43,-311.85"/>
<polygon fill="black" stroke="black" points="59.92,-312.04 56.55,-302 52.92,-311.95 59.92,-312.04"/>
</g>
<!-- B_txt -->
<g id="node3" class="node">
<title>B_txt</title>
<polygon fill="none" stroke="black" points="92.92,-204.1 44.92,-204.1 44.92,-168.1 98.92,-168.1 98.92,-198.1 92.92,-204.1"/>
<polyline fill="none" stroke="black" points="92.92,-204.1 92.92,-198.1"/>
<polyline fill="none" stroke="black" points="98.92,-198.1 92.92,-198.1"/>
<text text-anchor="middle" x="71.92" y="-181.43" font-family="Times,serif" font-size="14.00">B.txt</text>
</g>
<!-- B_txt&#45;&gt;head456 -->
<g id="edge5" class="edge">
<title>B_txt&#45;&gt;head456</title>
<path fill="none" stroke="black" d="M86.77,-167.7C94.03,-159.19 103.05,-148.62 111.68,-138.5"/>
<polygon fill="black" stroke="black" points="114.29,-140.83 118.12,-130.95 108.97,-136.29 114.29,-140.83"/>
</g>
<!-- C_txt -->
<g id="node4" class="node">
<title>C_txt</title>
<polygon fill="none" stroke="black" points="217.92,-204.1 169.92,-204.1 169.92,-168.1 223.92,-168.1 223.92,-198.1 217.92,-204.1"/>
<polyline fill="none" stroke="black" points="217.92,-204.1 217.92,-198.1"/>
<polyline fill="none" stroke="black" points="223.92,-198.1 217.92,-198.1"/>
<text text-anchor="middle" x="196.92" y="-181.43" font-family="Times,serif" font-size="14.00">C.txt</text>
</g>
<!-- C_txt&#45;&gt;head456 -->
<g id="edge6" class="edge">
<title>C_txt&#45;&gt;head456</title>
<path fill="none" stroke="black" d="M185.26,-167.7C179.87,-159.66 173.24,-149.78 166.81,-140.18"/>
<polygon fill="black" stroke="black" points="169.81,-138.37 161.34,-132.02 164,-142.27 169.81,-138.37"/>
</g>
<!-- D_txt -->
<g id="node5" class="node">
<title>D_txt</title>
<polygon fill="none" stroke="black" points="162.92,-36 114.92,-36 114.92,0 168.92,0 168.92,-30 162.92,-36"/>
<polyline fill="none" stroke="black" points="162.92,-36 162.92,-30"/>
<polyline fill="none" stroke="black" points="168.92,-30 162.92,-30"/>
<text text-anchor="middle" x="141.92" y="-13.32" font-family="Times,serif" font-size="14.00">D.txt</text>
</g>
<!-- head123&#45;&gt;B_txt -->
<g id="edge3" class="edge">
<title>head123&#45;&gt;B_txt</title>
<path fill="none" stroke="black" d="M62.25,-240C63.71,-232.04 65.28,-223.44 66.73,-215.53"/>
<polygon fill="black" stroke="black" points="70.16,-216.18 68.52,-205.72 63.28,-214.92 70.16,-216.18"/>
</g>
<!-- head456&#45;&gt;D_txt -->
<g id="edge7" class="edge">
<title>head456&#45;&gt;D_txt</title>
<path fill="none" stroke="black" d="M141.92,-71.89C141.92,-63.94 141.92,-55.34 141.92,-47.42"/>
<polygon fill="black" stroke="black" points="145.42,-47.64 141.92,-37.64 138.42,-47.64 145.42,-47.64"/>
</g>
</g>
</svg>
