<?xml version="1.0" encoding="UTF-8" standalone="no"?>
<!DOCTYPE svg PUBLIC "-//W3C//DTD SVG 1.1//EN"
 "http://www.w3.org/Graphics/SVG/1.1/DTD/svg11.dtd">
<!-- Generated by graphviz version 12.1.1 (0)
 -->
<!-- Title: G Pages: 1 -->
<svg width="1143pt" height="372pt"
 viewBox="0.00 0.00 1142.50 372.42" xmlns="http://www.w3.org/2000/svg" xmlns:xlink="http://www.w3.org/1999/xlink">
<g id="graph0" class="graph" transform="scale(1 1) rotate(0) translate(4 368.42)">
<title>G</title>
<polygon fill="white" stroke="none" points="-4,4 -4,-368.42 1138.5,-368.42 1138.5,4 -4,4"/>
<!-- wf -->
<g id="node1" class="node">
<title>wf</title>
<ellipse fill="none" stroke="green" cx="133.58" cy="-226.26" rx="129.58" ry="30.05"/>
<ellipse fill="none" stroke="green" cx="133.58" cy="-226.26" rx="133.58" ry="34.05"/>
<text text-anchor="middle" x="133.58" y="-230.21" font-family="Times,serif" font-size="14.00">Reproducing workflows</text>
<text text-anchor="middle" x="133.58" y="-212.96" font-family="Times,serif" font-size="14.00">ACM REP &#39;23</text>
</g>
<!-- PROBE -->
<g id="node5" class="node">
<title>PROBE</title>
<ellipse fill="none" stroke="orange" cx="613.58" cy="-126.16" rx="100.41" ry="30.05"/>
<text text-anchor="middle" x="613.58" y="-130.11" font-family="Times,serif" font-size="14.00">PROBE</text>
<text text-anchor="middle" x="613.58" y="-112.86" font-family="Times,serif" font-size="14.00">USENIX ATC &#39;25?</text>
</g>
<!-- wf&#45;&gt;PROBE -->
<g id="edge1" class="edge">
<title>wf&#45;&gt;PROBE</title>
<path fill="none" stroke="black" d="M230.39,-202.38C245.82,-198.88 261.62,-195.38 276.58,-192.21 357.75,-175 450.32,-157.26 517.88,-144.67"/>
<polygon fill="black" stroke="black" points="518.24,-148.16 527.43,-142.89 516.96,-141.28 518.24,-148.16"/>
</g>
<!-- standards -->
<g id="node2" class="node">
<title>standards</title>
<ellipse fill="none" stroke="green" cx="449.58" cy="-226.26" rx="160.34" ry="30.05"/>
<ellipse fill="none" stroke="green" cx="449.58" cy="-226.26" rx="164.34" ry="34.05"/>
<text text-anchor="middle" x="449.58" y="-230.21" font-family="Times,serif" font-size="14.00">Sem Web standards for repro</text>
<text text-anchor="middle" x="449.58" y="-212.96" font-family="Times,serif" font-size="14.00">SE4RS &#39;23</text>
</g>
<!-- standards&#45;&gt;PROBE -->
<g id="edge2" class="edge">
<title>standards&#45;&gt;PROBE</title>
<path fill="none" stroke="black" d="M502.37,-193.68C520.71,-182.71 541.28,-170.4 559.7,-159.38"/>
<polygon fill="black" stroke="black" points="561.32,-162.5 568.1,-154.36 557.72,-156.49 561.32,-162.5"/>
</g>
<!-- feasibility -->
<g id="node3" class="node">
<title>feasibility</title>
<ellipse fill="none" stroke="green" cx="778.58" cy="-330.36" rx="137.53" ry="30.05"/>
<ellipse fill="none" stroke="green" cx="778.58" cy="-330.36" rx="141.53" ry="34.05"/>
<text text-anchor="middle" x="778.58" y="-334.31" font-family="Times,serif" font-size="14.00">Feasibility of sys&#45;lvl prov</text>
<text text-anchor="middle" x="778.58" y="-317.06" font-family="Times,serif" font-size="14.00">Sandia Tech. Rep.</text>
</g>
<!-- bench -->
<g id="node4" class="node">
<title>bench</title>
<ellipse fill="none" stroke="green" cx="778.58" cy="-226.26" rx="142.31" ry="30.05"/>
<ellipse fill="none" stroke="green" cx="778.58" cy="-226.26" rx="146.31" ry="34.05"/>
<text text-anchor="middle" x="778.58" y="-230.21" font-family="Times,serif" font-size="14.00">Benchmark of sys&#45;lvl prov</text>
<text text-anchor="middle" x="778.58" y="-212.96" font-family="Times,serif" font-size="14.00">ACM REP &#39;24</text>
</g>
<!-- feasibility&#45;&gt;bench -->
<g id="edge7" class="edge">
<title>feasibility&#45;&gt;bench</title>
<path fill="none" stroke="black" d="M778.58,-295.93C778.58,-288.35 778.58,-280.18 778.58,-272.21"/>
<polygon fill="black" stroke="black" points="782.08,-272.28 778.58,-262.28 775.08,-272.28 782.08,-272.28"/>
</g>
<!-- bench&#45;&gt;PROBE -->
<g id="edge3" class="edge">
<title>bench&#45;&gt;PROBE</title>
<path fill="none" stroke="black" d="M726.37,-194.22C707.64,-183.08 686.48,-170.5 667.6,-159.28"/>
<polygon fill="black" stroke="black" points="669.64,-156.42 659.26,-154.32 666.06,-162.44 669.64,-156.42"/>
</g>
<!-- copr -->
<g id="node7" class="node">
<title>copr</title>
<ellipse fill="none" stroke="orange" cx="440.58" cy="-30.05" rx="137.53" ry="30.05"/>
<text text-anchor="middle" x="440.58" y="-34" font-family="Times,serif" font-size="14.00">Large&#45;scale reproduction</text>
<text text-anchor="middle" x="440.58" y="-16.75" font-family="Times,serif" font-size="14.00">ICSE &#39;25?</text>
</g>
<!-- PROBE&#45;&gt;copr -->
<g id="edge5" class="edge">
<title>PROBE&#45;&gt;copr</title>
<path fill="none" stroke="black" d="M566.3,-99.44C546.09,-88.45 522.26,-75.48 500.81,-63.82"/>
<polygon fill="black" stroke="black" points="502.61,-60.81 492.15,-59.1 499.26,-66.96 502.61,-60.81"/>
</g>
<!-- sandia_ex -->
<g id="node8" class="node">
<title>sandia_ex</title>
<ellipse fill="none" stroke="orange" cx="787.58" cy="-30.05" rx="191.15" ry="18"/>
<text text-anchor="middle" x="787.58" y="-25.38" font-family="Times,serif" font-size="14.00">PROBE @ Sandia experience report</text>
</g>
<!-- PROBE&#45;&gt;sandia_ex -->
<g id="edge6" class="edge">
<title>PROBE&#45;&gt;sandia_ex</title>
<path fill="none" stroke="black" d="M661.12,-99.44C687.57,-85.14 720.18,-67.5 745.66,-53.72"/>
<polygon fill="black" stroke="black" points="747.29,-56.82 754.42,-48.98 743.96,-50.66 747.29,-56.82"/>
</g>
<!-- PROBE_preview -->
<g id="node6" class="node">
<title>PROBE_preview</title>
<ellipse fill="none" stroke="green" cx="1038.58" cy="-226.26" rx="91.92" ry="30.05"/>
<ellipse fill="none" stroke="green" cx="1038.58" cy="-226.26" rx="95.92" ry="34.05"/>
<text text-anchor="middle" x="1038.58" y="-230.21" font-family="Times,serif" font-size="14.00">PROBE preview</text>
<text text-anchor="middle" x="1038.58" y="-212.96" font-family="Times,serif" font-size="14.00">US&#45;RSE &#39;24</text>
</g>
<!-- PROBE_preview&#45;&gt;PROBE -->
<g id="edge4" class="edge">
<title>PROBE_preview&#45;&gt;PROBE</title>
<path fill="none" stroke="black" d="M969.4,-202.36C957.51,-198.75 945.23,-195.22 933.58,-192.21 859.4,-173.05 774.37,-155.99 710.61,-144.15"/>
<polygon fill="black" stroke="black" points="711.32,-140.73 700.85,-142.35 710.05,-147.61 711.32,-140.73"/>
</g>
</g>
</svg>
